<svg xmlns="http://www.w3.org/2000/svg" viewBox="0 0 800 800">
  <!-- Sky background -->
  <rect width="100%" height="100%" fill="#e6f0ff"/>
  
  <!-- Color palette -->
  <!-- #001f3f (darkest), #003366, #0047AB, #007FFF, #4169E1, #87CEFA (lightest) -->
  
  <!-- Background buildings (blurred effect) -->
  <rect x="10" y="650" width="20" height="130" fill="#b3d9ff"/>
  <rect x="40" y="620" width="25" height="160" fill="#b3d9ff"/>
  <rect x="75" y="670" width="15" height="110" fill="#b3d9ff"/>
  <rect x="100" y="600" width="30" height="180" fill="#b3d9ff"/>
  <rect x="140" y="640" width="20" height="140" fill="#b3d9ff"/>
  <rect x="170" y="660" width="25" height="120" fill="#b3d9ff"/>
  <rect x="205" y="630" width="15" height="150" fill="#b3d9ff"/>
  <rect x="230" y="610" width="20" height="170" fill="#b3d9ff"/>
  <rect x="260" y="680" width="30" height="100" fill="#b3d9ff"/>
  <rect x="300" y="650" width="25" height="130" fill="#b3d9ff"/>
  <rect x="335" y="670" width="20" height="110" fill="#b3d9ff"/>
  <rect x="365" y="640" width="15" height="140" fill="#b3d9ff"/>
  <rect x="390" y="620" width="25" height="160" fill="#b3d9ff"/>
  <rect x="425" y="660" width="20" height="120" fill="#b3d9ff"/>
  <rect x="455" y="630" width="30" height="150" fill="#b3d9ff"/>
  <rect x="495" y="650" width="15" height="130" fill="#b3d9ff"/>
  <rect x="520" y="670" width="25" height="110" fill="#b3d9ff"/>
  <rect x="555" y="640" width="20" height="140" fill="#b3d9ff"/>
  <rect x="585" y="620" width="30" height="160" fill="#b3d9ff"/>
  <rect x="625" y="660" width="25" height="120" fill="#b3d9ff"/>
  <rect x="660" y="630" width="15" height="150" fill="#b3d9ff"/>
  <rect x="685" y="650" width="20" height="130" fill="#b3d9ff"/>
  <rect x="715" y="670" width="25" height="110" fill="#b3d9ff"/>
  <rect x="750" y="640" width="30" height="140" fill="#b3d9ff"/>
  
  <!-- One World Trade Center -->
  <polygon points="50,780 80,780 80,500 65,450 50,500" fill="#001f3f"/>
  
  <!-- 432 Park Avenue -->
  <rect x="120" y="520" width="30" height="260" fill="#0047AB"/>
  
  <!-- Empire State Building -->
  <rect x="190" y="540" width="60" height="240" fill="#003366"/>
  <polygon points="190,540 220,480 250,540" fill="#003366"/>
  
  <!-- Chrysler Building -->
  <rect x="300" y="580" width="50" height="200" fill="#0047AB"/>
  <polygon points="300,580 325,520 350,580" fill="#0047AB"/>
  
  <!-- Central Park Tower -->
  <rect x="400" y="480" width="40" height="300" fill="#001f3f"/>
  
  <!-- 30 Rockefeller Plaza -->
  <rect x="480" y="600" width="40" height="180" fill="#007FFF"/>
  
  <!-- 56 Leonard Street (Jenga Building) -->
  <rect x="560" y="640" width="60" height="140" fill="#87CEFA"/>
  <rect x="570" y="620" width="40" height="20" fill="#87CEFA"/>
  <rect x="580" y="600" width="20" height="20" fill="#87CEFA"/>
  
  <!-- 40 Wall Street -->
  <rect x="660" y="620" width="30" height="160" fill="#4169E1"/>
  <polygon points="660,620 675,590 690,620" fill="#4169E1"/>
  
  <!-- Water -->
  <rect x="0" y="780" width="800" height="20" fill="#4169E1"/>
</svg>
