<svg xmlns="http://www.w3.org/2000/svg" viewBox="0 0 800 400">
  <rect width="100%" height="100%" fill="#e6f0ff"/>
  
  <!-- Color palette -->
  <!-- #001f3f (darkest), #003366, #0047AB, #007FFF, #4169E1, #87CEFA (lightest) -->
  
  <!-- Background buildings (blurred effect) -->
  <rect x="10" y="250" width="20" height="130" fill="#b3d9ff"/>
  <rect x="40" y="220" width="25" height="160" fill="#b3d9ff"/>
  <rect x="75" y="270" width="15" height="110" fill="#b3d9ff"/>
  <rect x="100" y="200" width="30" height="180" fill="#b3d9ff"/>
  <rect x="140" y="240" width="20" height="140" fill="#b3d9ff"/>
  <rect x="170" y="260" width="25" height="120" fill="#b3d9ff"/>
  <rect x="205" y="230" width="15" height="150" fill="#b3d9ff"/>
  <rect x="230" y="210" width="20" height="170" fill="#b3d9ff"/>
  <rect x="260" y="280" width="30" height="100" fill="#b3d9ff"/>
  <rect x="300" y="250" width="25" height="130" fill="#b3d9ff"/>
  <rect x="335" y="270" width="20" height="110" fill="#b3d9ff"/>
  <rect x="365" y="240" width="15" height="140" fill="#b3d9ff"/>
  <rect x="390" y="220" width="25" height="160" fill="#b3d9ff"/>
  <rect x="425" y="260" width="20" height="120" fill="#b3d9ff"/>
  <rect x="455" y="230" width="30" height="150" fill="#b3d9ff"/>
  <rect x="495" y="250" width="15" height="130" fill="#b3d9ff"/>
  <rect x="520" y="270" width="25" height="110" fill="#b3d9ff"/>
  <rect x="555" y="240" width="20" height="140" fill="#b3d9ff"/>
  <rect x="585" y="220" width="30" height="160" fill="#b3d9ff"/>
  <rect x="625" y="260" width="25" height="120" fill="#b3d9ff"/>
  <rect x="660" y="230" width="15" height="150" fill="#b3d9ff"/>
  <rect x="685" y="250" width="20" height="130" fill="#b3d9ff"/>
  <rect x="715" y="270" width="25" height="110" fill="#b3d9ff"/>
  <rect x="750" y="240" width="30" height="140" fill="#b3d9ff"/>
  
  <!-- One World Trade Center -->
  <polygon points="50,380 80,380 80,100 65,50 50,100" fill="#001f3f"/>
  
  <!-- 432 Park Avenue (moved between 1st and 2nd) -->
  <rect x="120" y="120" width="30" height="260" fill="#0047AB"/>
  
  <!-- Empire State Building -->
  <rect x="190" y="140" width="60" height="240" fill="#003366"/>
  <polygon points="190,140 220,80 250,140" fill="#003366"/>
  
  <!-- Chrysler Building -->
  <rect x="300" y="180" width="50" height="200" fill="#0047AB"/>
  <polygon points="300,180 325,120 350,180" fill="#0047AB"/>
  
  <!-- Central Park Tower -->
  <rect x="400" y="80" width="40" height="300" fill="#001f3f"/>
  
  <!-- 30 Rockefeller Plaza -->
  <rect x="480" y="200" width="40" height="180" fill="#007FFF"/>
  
  <!-- 56 Leonard Street (Jenga Building) -->
  <rect x="560" y="240" width="60" height="140" fill="#87CEFA"/>
  <rect x="570" y="220" width="40" height="20" fill="#87CEFA"/>
  <rect x="580" y="200" width="20" height="20" fill="#87CEFA"/>
  
  <!-- 40 Wall Street -->
  <rect x="660" y="220" width="30" height="160" fill="#4169E1"/>
  <polygon points="660,220 675,190 690,220" fill="#4169E1"/>
  
  <!-- Water -->
  <rect x="0" y="380" width="800" height="20" fill="#4169E1"/>
</svg>
